<svg version="1.1" id="Layer_1" xmlns="http://www.w3.org/2000/svg" xmlns:xlink="http://www.w3.org/1999/xlink" x="0px" y="0px"
	 width="100%" viewBox="0 0 1024 1024" enable-background="new 0 0 1024 1024" xml:space="preserve">
<path fill="#000000" opacity="1.000000" stroke="none" 
	d="
M369.725586,145.153122 
	C370.009094,135.722885 372.487640,132.144577 378.800720,131.583755 
	C385.212372,131.014175 389.352264,134.497284 389.927124,140.890884 
	C390.132202,143.171844 389.471344,145.563461 390.818207,147.940720 
	C394.714355,148.248016 398.156921,146.329880 401.717804,145.235168 
	C425.475464,137.931274 449.696289,133.158813 474.426025,130.532028 
	C497.549438,128.075867 520.700134,127.754280 543.749817,129.909134 
	C623.761780,137.389267 694.445557,167.181152 755.078308,220.154587 
	C806.872742,265.406250 843.419922,320.775177 864.124573,386.414551 
	C871.890381,411.034363 877.328369,436.154144 879.541870,461.983612 
	C880.523254,473.436249 881.435913,484.843536 881.334961,496.333588 
	C881.266663,504.101379 878.009705,508.191071 871.746155,508.214172 
	C865.333130,508.237823 861.814636,503.898499 861.695984,496.021088 
	C861.245850,466.123352 857.695801,436.644775 849.803101,407.741760 
	C832.909668,345.878174 801.681946,292.361389 755.613098,247.793198 
	C708.048828,201.778336 651.813599,171.311462 587.198608,156.757721 
	C553.890381,149.255447 520.063843,146.863983 486.020050,149.465607 
	C455.034760,151.833527 424.776917,158.050400 395.385712,168.349701 
	C391.167236,169.827927 389.904755,172.117920 389.921387,176.412628 
	C390.046539,208.742996 390.036652,241.074646 389.849030,273.404633 
	C389.820770,278.271606 391.503082,279.775940 396.244080,279.640350 
	C434.896332,278.535034 473.560547,279.366150 512.219238,279.115662 
	C523.070801,279.045349 526.293640,282.263397 526.293518,292.958435 
	C526.292603,365.619995 526.290955,438.281555 526.289368,510.943115 
	C526.289185,517.937317 526.288513,517.956055 533.079346,517.954468 
	C544.578430,517.951782 556.082703,517.716553 567.574280,518.000854 
	C572.560120,518.124207 574.206726,516.571899 574.192932,511.475281 
	C574.040955,455.146362 574.131836,398.816803 574.073914,342.487518 
	C574.061096,330.019501 574.313416,325.302002 590.863770,325.511719 
	C629.521545,326.001648 668.189758,325.668488 706.853760,325.664795 
	C713.671082,325.664124 713.707764,325.655396 713.711853,318.708893 
	C713.726257,294.210571 713.693604,269.712250 713.723145,245.213974 
	C713.731689,238.111511 715.866455,234.989746 721.464661,233.500626 
	C726.972107,232.035660 731.830566,234.829926 733.468018,240.308456 
	C734.250366,242.925827 734.114624,245.587158 734.114502,248.245392 
	C734.110718,335.404602 734.098877,422.563812 734.081787,509.723022 
	C734.080139,517.981934 734.060730,517.964539 742.250793,517.952515 
	C754.249878,517.934998 766.250854,517.823181 778.246948,518.012024 
	C782.278809,518.075500 783.898926,516.874207 783.789612,512.628479 
	C783.541077,502.968842 783.673645,493.298309 783.722229,483.632538 
	C783.757446,476.612518 787.880249,471.885132 793.877991,471.827698 
	C799.544312,471.773438 803.320007,476.406433 803.340393,483.530731 
	C803.368469,493.363312 803.477783,503.198456 803.287842,513.027405 
	C803.215942,516.748413 804.560852,517.996094 808.217468,517.966064 
	C822.144043,517.851501 819.557251,518.933533 819.636108,507.121918 
	C819.781921,485.291046 819.666077,463.458527 819.687134,441.626678 
	C819.694397,434.060455 822.746399,430.703430 829.483337,430.708557 
	C836.154602,430.713654 839.265503,434.148499 839.273132,441.676331 
	C839.296021,464.174774 839.283264,486.673248 839.282898,509.171692 
	C839.282776,517.975281 839.280945,517.968140 848.323364,517.966248 
	C869.321838,517.961914 890.320435,517.933228 911.318787,517.983032 
	C918.444641,517.999878 922.410828,521.495544 922.764832,527.781677 
	C923.037476,532.622131 920.242859,536.621826 915.468079,537.696411 
	C913.227966,538.200562 910.847656,538.224609 908.530823,538.225159 
	C779.706360,538.254761 650.881836,538.259583 522.057373,538.264587 
	C509.128906,538.265137 506.003693,535.162537 505.931061,522.012085 
	C505.859253,509.013367 505.754883,496.011475 505.981262,483.016479 
	C506.056213,478.713196 504.824615,477.044403 500.341675,477.214722 
	C492.520355,477.511871 484.678772,477.343658 476.846649,477.268677 
	C470.089935,477.203979 465.938110,473.588928 465.684021,467.735413 
	C465.421600,461.691528 468.857361,457.610107 475.794434,457.173615 
	C483.928558,456.661774 492.120880,456.787476 500.276794,457.022705 
	C504.688324,457.149963 506.134827,455.560852 505.984558,451.212616 
	C505.702637,443.055939 505.709747,434.878021 505.949768,426.719330 
	C506.069702,422.642273 504.814270,421.029144 500.572784,421.170532 
	C492.748657,421.431366 484.909363,421.289673 477.076996,421.232025 
	C470.076019,421.180481 465.872253,417.493378 465.681641,411.386292 
	C465.486938,405.147766 469.154175,401.371674 476.497925,401.082336 
	C484.485321,400.767639 492.497833,400.814697 500.490723,401.028595 
	C504.633301,401.139496 506.084595,399.642609 505.966125,395.510162 
	C505.727448,387.184265 505.700836,378.840759 505.967468,370.516693 
	C506.102936,366.288544 504.503693,365.025208 500.455536,365.052521 
	C481.291138,365.181946 462.125122,365.140503 442.959991,365.070648 
	C435.120087,365.042084 430.749329,360.295563 431.780701,353.213837 
	C432.574066,347.766235 436.266754,344.860138 442.944275,344.820312 
	C456.442810,344.739777 469.942261,344.805756 483.441315,344.807892 
	C489.440857,344.808838 495.442261,344.711548 501.439209,344.834442 
	C504.614197,344.899506 505.931458,343.688019 505.905701,340.442749 
	C505.809113,328.277771 505.748383,316.109650 505.937073,303.946808 
	C506.005859,299.513489 503.585938,299.272034 500.207855,299.280518 
	C473.043213,299.348907 445.878357,299.322876 418.713562,299.323456 
	C411.380737,299.323608 404.047913,299.307861 396.715088,299.314606 
	C389.957916,299.320801 389.955719,299.331482 389.953400,305.886292 
	C389.938324,348.716614 389.920349,391.546936 389.909637,434.377258 
	C389.902313,463.541779 389.905701,492.706329 389.902008,521.870850 
	C389.901825,523.203979 389.904694,524.538025 389.861847,525.870178 
	C389.595062,534.171143 386.446045,537.302063 378.171173,537.306458 
	C321.841736,537.336609 265.512268,537.349243 209.182831,537.353455 
	C177.351685,537.355835 145.520508,537.357483 113.689438,537.300598 
	C105.928505,537.286743 101.715706,531.710266 103.705574,524.356750 
	C104.962433,519.711975 108.005318,517.688416 113.995651,517.683655 
	C139.493881,517.663330 164.992157,517.675049 190.490402,517.672119 
	C197.978165,517.671204 197.979385,517.666809 197.978378,510.379272 
	C197.972900,470.715363 197.960632,431.051483 197.976425,391.387573 
	C197.977356,389.062012 197.997314,386.703461 198.363937,384.417297 
	C199.363708,378.182770 203.362732,375.136017 209.564499,375.647949 
	C215.080933,376.103302 218.238403,379.637939 218.288574,385.818329 
	C218.384583,397.650146 218.342010,409.483124 218.343613,421.315643 
	C218.347672,451.313568 218.462799,481.312439 218.230988,511.308563 
	C218.190903,516.496033 219.901672,518.064392 224.836502,517.743469 
	C230.146973,517.398193 235.502914,517.516602 240.828323,517.716980 
	C244.579193,517.858154 245.874298,516.269836 245.746658,512.674927 
	C245.575272,507.848083 245.708511,503.010498 245.708359,498.177521 
	C245.706573,440.348145 245.697510,382.518768 245.709274,324.689392 
	C245.711105,315.729370 251.171143,311.254547 259.025757,313.749176 
	C262.911926,314.983398 265.153961,317.612366 265.293549,321.802399 
	C265.343475,323.300751 265.317108,324.801880 265.317169,326.301727 
	C265.319794,387.797516 265.319489,449.293304 265.325806,510.789093 
	C265.326508,517.648621 265.343445,517.648560 272.220367,517.667175 
	C285.003296,517.701782 285.005371,517.701843 284.997559,505.128357 
	C284.993622,498.795471 284.963745,492.462494 284.982971,486.129700 
	C284.988007,484.467224 285.000092,482.786133 285.236115,481.146271 
	C286.190338,474.516327 290.250519,470.852814 296.120850,471.208008 
	C301.550507,471.536530 305.182129,475.839264 305.241425,482.319824 
	C305.329834,491.985077 305.540924,501.661804 305.172119,511.313477 
	C304.978882,516.370972 306.491241,518.043091 311.625183,517.780701 
	C319.697906,517.368286 319.729187,517.681580 319.731903,509.463898 
	C319.739349,487.132111 319.707550,464.800262 319.744415,442.468536 
	C319.758240,434.099091 323.579803,430.200195 331.038940,430.726532 
	C337.066162,431.151825 340.081573,435.019531 340.101379,442.759369 
	C340.156860,464.424377 340.092682,486.089722 340.140747,507.754791 
	C340.166473,519.342346 339.251434,517.502380 349.979858,517.664124 
	C354.645142,517.734497 359.326233,517.452026 363.974670,517.740662 
	C368.246735,518.005920 370.101746,516.624207 369.816772,512.123230 
	C369.512024,507.309601 369.751038,502.461639 369.750916,497.628632 
	C369.748138,394.302368 369.748535,290.976135 369.721832,187.649872 
	C369.721191,185.182327 370.117279,182.662170 369.235840,180.182709 
	C367.031555,179.152222 365.370636,180.628525 363.680695,181.446289 
	C277.167725,223.309021 216.692612,288.980408 182.943222,379.109467 
	C172.909500,405.904846 166.976685,433.675812 163.542831,461.971893 
	C162.103058,473.836090 161.933426,485.862061 161.382278,497.823486 
	C161.077820,504.430756 157.894867,508.143433 151.893768,508.220612 
	C145.885315,508.297882 141.875687,504.210510 141.823914,497.644958 
	C141.607803,470.236725 145.063766,443.252716 151.127960,416.550293 
	C162.037994,368.510071 181.679413,324.343231 210.172577,284.206512 
	C247.720535,231.314789 296.022461,191.165970 354.695984,163.500854 
	C356.353424,162.719345 357.915588,161.540176 359.655823,161.162766 
	C368.254120,159.297989 371.320831,154.008698 369.725586,145.153122 
M713.728882,410.395935 
	C713.729187,406.729431 713.445862,403.035339 713.799500,399.403229 
	C714.273560,394.535126 712.405334,393.155823 707.608276,393.215759 
	C688.111572,393.459503 668.609680,393.248718 649.110657,393.366211 
	C644.471191,393.394165 641.434814,391.416962 639.800476,387.292206 
	C637.007446,380.243469 641.561951,373.765900 649.401428,373.735107 
	C668.567566,373.659760 687.734131,373.713715 706.900574,373.701843 
	C713.685974,373.697662 713.697266,373.679504 713.723083,366.699860 
	C713.742188,361.533325 713.488098,356.352234 713.799377,351.204468 
	C714.068420,346.756104 712.745972,345.067749 707.978027,345.099304 
	C671.980469,345.337769 635.981140,345.373932 599.982605,345.320099 
	C595.718628,345.313721 594.189636,346.544464 594.227234,351.031250 
	C594.424255,374.529175 594.302856,398.029755 594.299377,421.529388 
	C594.294983,451.862335 594.363770,482.195557 594.219849,512.527832 
	C594.200195,516.683594 595.560791,518.220093 599.666748,517.996216 
	C604.153687,517.751343 608.663635,517.921509 613.163513,517.921326 
	C644.329712,517.919739 675.495850,517.921448 706.662048,517.920654 
	C713.699341,517.920471 713.713013,517.917725 713.727356,511.144592 
	C713.742493,503.978058 713.445679,496.796570 713.822571,489.649963 
	C714.088501,484.607819 711.929199,483.257812 707.369202,483.361145 
	C699.040344,483.549957 690.703369,483.476318 682.371216,483.383789 
	C677.468872,483.329376 673.817566,480.001892 673.150940,475.289886 
	C672.270630,469.066895 676.574646,464.107117 683.440918,463.935516 
	C691.769104,463.727356 700.107971,463.762115 708.438171,463.913574 
	C712.117310,463.980438 714.039551,463.051300 713.787964,458.873657 
	C713.487915,453.891907 713.547974,448.870148 713.777710,443.880768 
	C713.951965,440.095490 712.329285,438.920685 708.764038,438.979218 
	C700.600037,439.113373 692.429138,439.131012 684.266418,438.952454 
	C677.484253,438.804108 673.027222,434.549011 673.083252,428.710388 
	C673.141968,422.593628 677.296082,418.834137 684.369446,418.738098 
	C691.701355,418.638550 699.035583,418.718933 706.368835,418.713257 
	C713.691162,418.707611 713.691162,418.703613 713.728882,410.395935 
z"/>
<path fill="#000000" opacity="1.000000" stroke="none" 
	d="
M718.593140,628.434692 
	C725.739685,637.438965 732.419067,646.346558 738.597107,655.662659 
	C740.454224,654.705444 739.771057,653.204102 739.769958,652.061096 
	C739.752502,634.237793 739.687805,616.414429 739.578979,598.591370 
	C739.536865,591.702698 739.040466,591.283142 732.228943,591.107422 
	C730.681824,591.067566 728.384888,591.799133 728.245056,589.388245 
	C728.092224,586.754028 730.437500,587.047913 732.255432,586.932495 
	C733.968933,586.823730 735.964111,587.641968 737.311157,585.424255 
	C735.999390,583.504883 734.009094,583.423401 732.057068,583.644348 
	C729.525085,583.931030 727.626038,583.408325 727.512878,580.505432 
	C727.373474,576.928345 730.207031,577.775024 732.167786,577.757019 
	C741.995300,577.666565 751.826965,577.830444 761.650574,577.610779 
	C765.482666,577.525146 766.775024,579.040894 766.383789,582.617126 
	C766.098267,585.226685 766.728943,587.934387 765.759094,590.299988 
	C764.597168,591.040955 763.651550,590.808228 762.652283,590.580261 
	C758.466125,589.625366 756.342712,591.150269 756.233459,595.444153 
	C756.085327,601.271179 756.150146,607.103760 756.130737,612.933960 
	C756.078674,628.591431 756.095764,644.249512 755.953308,659.906128 
	C755.880676,667.888794 755.422607,675.867859 755.346497,683.850586 
	C755.316833,686.963989 753.984497,687.812378 751.084412,687.824341 
	C743.585144,687.855225 737.757812,685.917542 733.053955,679.059937 
	C724.776672,666.992737 715.319214,655.735718 706.371704,644.127380 
	C697.540283,632.669678 688.728271,621.197021 679.868713,609.680176 
	C678.726501,610.475281 679.320801,611.756348 679.324707,612.800903 
	C679.394226,631.275696 679.608582,649.750549 679.564026,668.224731 
	C679.553894,672.394043 681.055725,673.905579 685.156189,673.680115 
	C687.273376,673.563721 690.381287,672.193176 691.375061,675.109192 
	C692.608704,678.729065 692.382751,682.684204 691.349915,686.416931 
	C691.006104,687.659302 689.506409,687.573181 688.310974,687.583435 
	C678.323059,687.669006 668.332336,687.667480 658.348938,687.933533 
	C654.114380,688.046326 652.038818,686.629028 652.652100,682.182556 
	C652.787354,681.201782 652.757812,680.177246 652.654541,679.188416 
	C652.247437,675.291870 653.511597,673.044678 657.873291,673.634766 
	C661.626709,674.142456 662.785950,672.343506 662.788757,668.734497 
	C662.806885,645.250305 663.007141,621.766296 663.072998,598.282104 
	C663.090088,592.197876 661.993591,591.112305 656.071350,591.668457 
	C652.187256,592.033203 649.669067,591.785461 649.658081,586.801147 
	C649.638123,577.718872 649.431030,577.712097 655.836426,577.677185 
	C659.334595,577.658142 662.834229,577.685852 666.330383,577.588074 
	C675.096802,577.342896 682.079224,580.745483 687.390564,587.688354 
	C697.712524,601.180908 708.046143,614.664551 718.593140,628.434692 
z"/>
<path fill="#000000" opacity="1.000000" stroke="none" 
	d="
M182.453613,687.441223 
	C171.377701,687.536804 160.727036,687.583862 150.078766,687.769531 
	C147.292465,687.817993 146.005478,686.840027 146.298141,683.979919 
	C146.467422,682.325623 146.713303,680.634949 146.546432,678.999207 
	C146.123932,674.857422 147.816635,673.119446 151.951904,673.658447 
	C155.749939,674.153503 156.844604,672.208679 156.811417,668.665466 
	C156.716217,658.502563 156.777649,648.336426 156.915771,638.173462 
	C157.101303,624.524780 157.312958,610.874695 157.735764,597.231995 
	C157.870758,592.875549 156.392532,591.134766 151.948166,591.565125 
	C146.627090,592.080322 145.894623,591.228516 146.176422,585.839783 
	C146.305984,583.362122 146.613571,580.893738 146.908737,577.676697 
	C152.604752,577.676697 158.207062,577.678711 163.809357,577.676086 
	C170.141495,577.673096 176.479553,577.828186 182.803513,577.597961 
	C186.439758,577.465576 188.127045,578.736023 187.910294,582.417297 
	C187.822281,583.912048 187.804947,585.421265 187.900940,586.914490 
	C188.111771,590.193665 187.038193,591.593445 183.364685,591.603088 
	C176.356827,591.621521 176.353043,591.891418 176.346283,598.805542 
	C176.339279,605.970886 176.442047,613.138245 176.295059,620.300598 
	C176.229767,623.481934 177.328644,624.792847 180.615189,624.765564 
	C193.945129,624.654907 207.276901,624.654114 220.606979,624.752014 
	C223.871536,624.775940 224.924973,623.443787 225.001221,620.290039 
	C225.194321,612.302917 224.575974,604.296082 225.566147,596.326111 
	C226.026550,592.620178 223.846268,591.863159 220.686768,591.841431 
	C218.352036,591.825378 215.018433,592.942749 214.182785,589.782532 
	C213.262222,586.301270 213.193146,582.482422 214.378250,578.941895 
	C214.854858,577.518005 216.588409,577.689514 217.915848,577.687073 
	C229.247025,577.666077 240.578583,577.707947 251.909302,577.628662 
	C256.756012,577.594727 256.022095,581.066772 255.940399,583.937805 
	C255.854614,586.952271 256.584259,590.633240 251.673157,590.876953 
	C244.463287,591.234680 244.460800,591.294922 244.434906,598.204102 
	C244.348755,621.199036 244.257797,644.193970 244.189224,667.188904 
	C244.169968,673.641235 244.223358,673.930115 250.434738,673.479187 
	C255.074036,673.142395 256.149719,675.065002 256.094818,679.236816 
	C255.981445,687.849976 256.139374,687.866272 247.648132,687.883789 
	C238.649872,687.902405 229.651505,687.903564 220.653244,687.887207 
	C213.912354,687.874878 213.786987,687.728088 213.762115,680.782288 
	C213.759140,679.949097 213.824982,679.110413 213.751938,678.283752 
	C213.448013,674.843506 214.995682,673.600708 218.423340,673.565918 
	C224.953476,673.499756 224.953644,673.341919 224.954453,666.733276 
	C224.955338,659.401367 224.878677,652.068298 224.986267,644.737976 
	C225.031982,641.622498 223.965118,640.201538 220.652863,640.227417 
	C207.322861,640.331726 193.991058,640.330139 180.661072,640.223999 
	C177.427124,640.198181 176.229691,641.398315 176.279907,644.630249 
	C176.401566,652.459656 176.505478,660.303223 176.159271,668.120789 
	C175.958572,672.652771 177.655151,674.074097 181.949539,673.707214 
	C183.885559,673.541809 186.866104,672.440369 187.502441,675.398560 
	C188.296341,679.089172 188.662186,683.055664 187.050323,686.648315 
	C186.371384,688.161438 184.321945,687.310181 182.453613,687.441223 
z"/>
<path fill="#000000" opacity="1.000000" stroke="none" 
	d="
M371.592102,613.679443 
	C375.125397,632.140564 374.152374,649.621643 364.290497,665.718323 
	C345.225433,696.836670 295.943756,698.194885 275.934845,668.231384 
	C260.725739,645.455627 264.702026,608.744873 284.400604,589.759338 
	C305.573944,569.352356 349.738617,569.993591 365.742950,598.426758 
	C368.379822,603.111328 370.283997,608.048523 371.592102,613.679443 
M290.345795,651.079346 
	C292.335052,656.833069 295.238007,662.013672 299.856140,666.096802 
	C317.361023,681.573792 344.304932,672.486328 350.544830,648.884705 
	C353.345642,638.290894 353.552460,627.597412 351.065674,616.820557 
	C347.481323,601.287354 338.259491,592.981445 322.429260,591.490112 
	C310.197876,590.337708 296.565796,599.251953 291.612732,612.063965 
	C286.773285,624.582153 286.892822,637.415833 290.345795,651.079346 
z"/>
<path fill="#000000" opacity="1.000000" stroke="none" 
	d="
M869.945557,594.026001 
	C869.928955,598.515747 870.174927,602.534424 869.849182,606.506104 
	C869.182800,614.632629 862.802002,610.175049 858.980896,610.993774 
	C855.874634,611.659241 852.330383,611.463379 852.705078,606.496399 
	C852.817505,605.006287 852.708374,603.499634 852.705688,602.000549 
	C852.689941,593.165405 852.712585,593.020020 844.085205,591.706665 
	C837.813721,590.751831 831.412354,590.539185 825.190857,591.832031 
	C810.508179,594.883362 801.545593,603.954102 798.129883,618.553955 
	C794.817688,632.710876 795.536316,646.409180 803.640869,658.884399 
	C811.477478,670.947205 823.140808,675.745422 837.144226,674.055237 
	C850.724976,672.416138 850.681702,672.055359 850.680542,658.052368 
	C850.680420,656.886414 850.579041,655.711365 850.689087,654.556213 
	C850.996826,651.326355 849.569458,650.188904 846.365112,650.094238 
	C838.651794,649.866394 835.814636,645.339478 838.328308,637.913635 
	C838.937378,636.114136 840.136414,635.711853 841.743958,635.712097 
	C853.236938,635.713745 864.729919,635.738953 876.222778,635.702698 
	C878.769287,635.694641 879.850220,636.935852 879.863708,639.352905 
	C879.873047,641.018372 879.784485,642.693237 879.927673,644.347534 
	C880.293640,648.574646 878.617004,650.700623 874.205505,650.176086 
	C870.287048,649.710266 868.977966,651.467834 868.976440,655.337646 
	C868.973083,663.648560 868.526062,671.958618 868.334473,680.270691 
	C868.281616,682.561829 868.153442,684.582092 865.372925,685.275696 
	C842.600098,690.956177 820.001892,693.257751 798.658752,680.457642 
	C785.653625,672.658020 779.079834,660.453247 776.679199,645.777405 
	C774.246155,630.903198 775.712585,616.529297 783.095459,603.208923 
	C791.714844,587.657471 805.591125,579.654480 822.743530,576.709229 
	C836.127319,574.411011 849.234375,576.152344 862.222900,579.463745 
	C869.950806,581.433960 869.942505,581.468506 869.953064,589.535828 
	C869.954834,590.868408 869.950684,592.200989 869.945557,594.026001 
z"/>
<path fill="#000000" opacity="1.000000" stroke="none" 
	d="
M385.352234,577.794067 
	C396.808594,577.712402 407.806946,577.838379 418.798035,577.612305 
	C422.813232,577.529724 424.817657,578.625000 424.280273,582.920166 
	C424.095612,584.396057 424.180084,585.920166 424.274628,587.413757 
	C424.540924,591.622375 422.463470,592.726074 419.135132,590.765808 
	C414.578033,588.081909 414.089783,591.277710 413.373383,594.302063 
	C413.148529,595.251343 413.303131,596.293152 413.302948,597.292603 
	C413.300140,614.452698 413.347839,631.613098 413.262054,648.772766 
	C413.243469,652.482605 413.833832,656.102844 414.640717,659.637878 
	C416.128448,666.155884 420.174011,670.652100 426.809845,672.208984 
	C434.361664,673.980835 442.062622,674.035645 449.574799,672.213989 
	C458.127258,670.140198 462.796112,663.880188 463.612610,653.728577 
	C464.065643,648.095947 463.881165,642.411682 463.973969,636.750488 
	C464.189575,623.598938 464.278839,610.443665 464.679230,597.297791 
	C464.811493,592.955627 463.039124,591.351257 458.923553,591.145447 
	C452.593140,590.828857 449.783325,586.083557 451.839020,579.794250 
	C452.543518,577.638794 454.210602,577.702332 455.853912,577.705078 
	C466.682343,577.723022 477.510681,577.823730 488.338989,577.813110 
	C491.550110,577.809937 492.853607,579.096008 492.518127,582.387573 
	C492.319275,584.338501 492.797852,586.350952 492.865570,588.339294 
	C492.911469,589.687134 492.864716,591.177856 491.012024,591.301025 
	C489.373077,591.409912 488.535248,590.201416 488.335663,588.848022 
	C488.122955,587.405212 488.423676,585.894226 488.393738,584.415100 
	C488.357483,582.623657 487.390045,581.525574 485.575104,581.698730 
	C484.068970,581.842407 483.310181,582.901550 483.286896,584.476440 
	C482.957794,606.728394 482.751221,628.983398 482.218262,651.230530 
	C481.961273,661.957947 479.483704,672.062439 471.109741,679.710876 
	C464.680847,685.582764 456.665497,687.963013 448.355255,689.036438 
	C438.081268,690.363647 427.781647,690.053284 417.664856,687.360229 
	C403.668121,683.634460 394.857941,672.785706 394.717499,658.318787 
	C394.520691,638.044861 394.514221,617.765747 394.771912,597.493225 
	C394.831146,592.836426 392.826141,591.048157 388.808319,590.779724 
	C386.288544,590.611389 383.872253,590.358398 383.510651,587.439453 
	C383.108948,584.196533 381.224884,580.575378 385.352234,577.794067 
z"/>
<path fill="#000000" opacity="1.000000" stroke="none" 
	d="
M535.786987,639.338379 
	C530.302979,637.718262 525.145447,636.490540 520.259033,634.226868 
	C499.810425,624.754150 500.053772,594.502686 517.646973,583.236755 
	C525.034119,578.506348 533.150330,576.428589 541.684875,575.764771 
	C553.446594,574.849976 564.880188,577.021118 576.192444,580.020691 
	C579.015930,580.769287 580.334412,582.391785 580.277954,585.384399 
	C580.171265,591.046753 580.243774,596.712646 580.263916,602.377014 
	C580.271851,604.612671 579.771057,606.365295 577.022766,606.355347 
	C572.398926,606.338623 567.774963,606.350769 563.271484,606.350769 
	C562.093689,603.636047 562.010925,601.215942 562.413086,599.025391 
	C563.252319,594.454773 561.207764,592.425293 557.044983,591.910461 
	C548.583374,590.864075 540.146423,590.028259 532.086609,594.054688 
	C527.038391,596.576721 524.774475,600.813293 524.713440,606.159485 
	C524.654358,611.328674 527.517639,614.904053 532.067688,617.147156 
	C538.857544,620.494507 546.306885,621.697510 553.534180,623.589722 
	C557.409363,624.604309 561.207886,625.763000 564.934753,627.225220 
	C576.693542,631.838806 583.910156,639.784729 584.307129,652.972473 
	C584.745239,667.527832 579.106567,678.576965 565.718201,684.969299 
	C554.164124,690.485901 541.837219,690.343933 529.500977,688.954285 
	C522.571045,688.173645 515.672668,687.058594 508.889832,685.271118 
	C505.415192,684.355530 503.913208,682.596680 504.025238,678.952515 
	C504.209473,672.960938 504.120575,666.957825 504.019562,660.961731 
	C503.959198,657.380249 505.514160,655.681152 509.119843,655.923584 
	C509.617157,655.957092 510.119141,655.924866 510.618896,655.917725 
	C522.544006,655.747864 522.595764,655.744690 523.307861,667.587219 
	C523.445679,669.878845 524.091248,671.342896 526.438538,671.984497 
	C535.218628,674.384460 544.013428,675.669128 552.928101,672.712646 
	C562.175781,669.645813 567.041931,660.050903 563.417053,652.231262 
	C561.826233,648.799561 558.969971,646.928711 555.711182,645.491760 
	C549.435120,642.724243 542.640564,641.610901 535.786987,639.338379 
z"/>
<path fill="#000000" opacity="1.000000" stroke="none" 
	d="
M239.803345,746.497437 
	C245.082504,767.209656 243.741653,786.178467 227.943207,801.935486 
	C219.180634,810.675049 208.059601,813.867432 196.150345,814.209534 
	C182.513199,814.601318 168.855438,814.226196 155.207825,814.334534 
	C151.645920,814.362793 149.263687,813.629150 149.729889,809.423950 
	C150.105789,806.033264 147.918442,801.042297 154.651001,801.652405 
	C158.526199,802.003601 158.867676,799.468445 158.874390,796.514038 
	C158.907684,781.867920 158.954712,767.221619 159.096130,752.576294 
	C159.145874,747.426086 159.378571,742.271973 159.716049,737.132019 
	C159.943542,733.667664 158.950119,731.965088 155.083344,731.871216 
	C149.623718,731.738831 149.619537,731.084900 149.637558,723.337158 
	C149.648300,718.717346 152.360870,718.778748 155.541687,718.853333 
	C170.992996,719.215698 186.455032,718.145020 201.905212,719.616150 
	C219.618423,721.302612 232.797867,729.134827 239.803345,746.497437 
M197.427750,800.991333 
	C209.656296,798.929993 218.143768,792.268005 222.189102,780.441223 
	C224.248825,774.419556 225.071014,768.162476 224.673233,761.757019 
	C223.746078,746.826172 215.013260,735.915710 200.841858,732.715332 
	C193.806793,731.126526 186.562424,732.084961 179.410248,732.024048 
	C177.085800,732.004272 176.386032,733.481689 176.247147,735.626526 
	C174.911453,756.254883 175.584991,776.908752 175.380081,797.551147 
	C175.354370,800.141052 176.232864,801.694641 179.115143,801.613708 
	C184.934464,801.450195 190.776489,802.146606 197.427750,800.991333 
z"/>
<path fill="#000000" opacity="1.000000" stroke="none" 
	d="
M560.664795,801.942261 
	C562.701721,805.104614 561.849182,808.301453 561.746277,811.410461 
	C561.689697,813.119019 560.642029,814.153259 558.845093,814.209717 
	C546.483826,814.598511 540.417419,814.720459 534.287476,803.542542 
	C530.205261,796.098572 525.679688,788.894470 521.242004,781.650696 
	C520.035889,779.681946 518.638000,777.734192 516.959778,776.172668 
	C514.085266,773.498291 510.271881,773.774902 506.999207,774.708679 
	C503.847839,775.607971 505.294281,778.988586 505.190857,781.290771 
	C504.959259,786.446899 505.084625,791.617981 504.987671,796.781555 
	C504.927277,799.998840 505.967346,802.101624 509.617676,801.446777 
	C514.596313,800.553650 515.499451,803.048340 515.474121,807.388367 
	C515.448730,811.767456 515.186768,814.697815 509.458862,814.401428 
	C500.983429,813.962830 492.465881,814.161682 483.971680,814.342346 
	C480.179260,814.422913 478.238861,813.221619 478.707703,809.213440 
	C479.089752,805.947021 477.053009,801.192871 483.404022,801.630798 
	C486.637604,801.853760 487.577423,800.271301 487.803955,797.144226 
	C489.237640,777.352783 488.220245,757.535034 488.714355,737.739014 
	C488.822083,733.422485 487.424500,731.710388 483.072998,731.796631 
	C476.854736,731.919922 479.132385,727.004333 478.737213,723.786194 
	C478.337067,720.527466 479.634705,718.742676 483.194366,718.857178 
	C497.662476,719.322571 512.150024,718.062805 526.615540,719.607788 
	C539.307068,720.963257 547.558655,728.060913 549.745361,740.032715 
	C552.029846,752.539795 546.787964,762.804932 535.320496,768.262573 
	C534.438782,768.682129 533.398254,768.868164 532.900269,770.317200 
	C539.627014,777.557312 543.992676,786.579956 549.035156,795.148865 
	C551.684265,799.650818 555.117859,802.033142 560.664795,801.942261 
M505.285004,757.971436 
	C505.399231,759.458557 506.028198,760.601624 507.645996,760.642700 
	C512.275146,760.760193 516.963562,761.345276 521.509155,760.199280 
	C529.469055,758.192566 533.495911,752.110901 532.648926,743.815369 
	C531.915649,736.633362 526.762756,732.286072 518.533936,731.943909 
	C516.049744,731.840576 513.547424,731.964539 511.079834,731.718811 
	C506.947388,731.307251 504.918945,732.615112 505.116180,737.178345 
	C505.402374,743.799438 505.216644,750.441040 505.285004,757.971436 
z"/>
<path fill="#000000" opacity="1.000000" stroke="none" 
	d="
M619.086487,761.708252 
	C631.707153,767.341248 636.706848,774.785034 636.247009,786.829834 
	C635.764954,799.456238 628.888794,808.781372 616.757751,813.115601 
	C604.854492,817.368469 592.700256,816.117126 580.736450,813.911438 
	C563.902771,810.807861 567.406189,812.645813 567.133301,797.491272 
	C566.899231,784.491455 566.371582,787.130127 578.093079,786.575073 
	C582.802979,786.351929 584.209839,788.098755 584.128357,792.591980 
	C583.989441,800.250854 584.707581,800.638245 592.491821,801.778259 
	C597.485107,802.509460 602.364075,802.779785 607.310547,801.510986 
	C614.220093,799.738647 618.498962,795.053101 618.695129,788.758728 
	C618.890503,782.490723 615.994385,778.903931 608.441406,776.565613 
	C600.337341,774.056641 592.086182,772.001099 584.051453,769.295532 
	C575.374023,766.373535 569.653625,760.335571 567.919861,751.184570 
	C565.252441,737.105103 572.503479,724.712952 586.251770,720.225891 
	C600.910217,715.441711 615.490234,717.352295 629.949341,721.598267 
	C632.140625,722.241699 632.843445,723.693359 632.858643,725.670044 
	C632.895691,730.500916 632.873901,735.332520 632.829834,740.163513 
	C632.804199,742.968933 631.540894,744.526672 628.517639,744.296387 
	C627.192627,744.195435 625.853149,744.291199 624.520203,744.288147 
	C617.146729,744.270996 616.978271,744.271790 616.900696,737.080505 
	C616.864929,733.758911 615.565613,732.158875 612.420959,731.703918 
	C606.616455,730.864136 600.798157,730.510620 595.065491,731.980225 
	C588.792603,733.588318 584.804260,738.006348 584.536926,743.245972 
	C584.299438,747.898865 587.654297,752.296265 593.826477,754.303650 
	C602.044495,756.976318 610.414307,759.182251 619.086487,761.708252 
z"/>
<path fill="#000000" opacity="1.000000" stroke="none" 
	d="
M439.020020,772.306824 
	C425.747314,772.557129 427.041260,770.036987 426.896698,784.062073 
	C426.850372,788.558044 426.879730,793.064819 426.560181,797.544250 
	C426.358582,800.369934 427.308777,801.603394 430.109161,801.595276 
	C436.608337,801.576416 443.108246,801.566223 449.606720,801.646057 
	C452.600922,801.682800 453.900696,800.319153 453.680573,797.384705 
	C453.655792,797.054138 453.686951,796.718262 453.705933,796.385620 
	C454.298370,785.996460 455.193604,785.284668 465.734711,786.367188 
	C467.545898,786.553223 468.539124,787.160278 468.463989,789.084778 
	C468.191071,796.073669 467.939667,803.063354 467.670593,810.052429 
	C467.553131,813.103638 466.082733,814.346619 462.910339,814.330017 
	C443.578949,814.229126 424.246674,814.261169 404.914795,814.300415 
	C402.243347,814.305847 400.038788,813.856750 400.639435,810.523621 
	C401.208679,807.364624 398.480560,802.274048 404.471222,801.959229 
	C408.998108,801.721375 409.964386,799.694275 409.944489,795.686340 
	C409.849335,776.521851 409.839661,757.355103 410.062836,738.192139 
	C410.116333,733.599426 408.704285,731.295959 403.940186,731.331787 
	C397.501282,731.380249 400.234711,726.351807 399.734833,723.272217 
	C399.136536,719.586182 401.498291,718.830017 404.619629,718.836121 
	C423.618103,718.873352 442.617340,718.912842 461.614899,718.766479 
	C465.310760,718.737976 466.896759,720.447632 467.014832,723.711426 
	C467.231537,729.703247 467.178497,735.704346 467.273315,741.701111 
	C467.313629,744.251404 466.036285,745.326233 463.581421,745.262939 
	C462.415985,745.232910 461.248657,745.286499 460.082214,745.284363 
	C453.773560,745.272949 453.283936,744.825012 452.800171,738.652954 
	C452.275909,731.963440 452.275604,731.994934 445.593170,731.934937 
	C441.429840,731.897522 437.262695,731.839417 433.106110,731.621338 
	C429.130371,731.412598 426.706055,732.487427 426.881012,737.123169 
	C427.094543,742.781006 427.032013,748.455994 426.886719,754.118347 
	C426.797852,757.582214 428.243683,758.868103 431.653839,758.769226 
	C437.148590,758.609802 442.657745,758.899475 448.149292,758.692993 
	C451.994629,758.548340 453.790558,759.895691 453.366730,763.869751 
	C453.208588,765.352722 453.286499,766.869202 453.354126,768.366028 
	C453.476990,771.083984 452.271057,772.351196 449.511414,772.294495 
	C446.179901,772.225952 442.845520,772.296265 439.020020,772.306824 
z"/>
<path fill="#000000" opacity="1.000000" stroke="none" 
	d="
M343.575256,787.507446 
	C344.672516,790.450684 345.628967,793.031494 346.906097,796.477661 
	C354.588562,774.785034 361.946289,754.009399 369.381042,733.016235 
	C368.196106,732.564453 367.631989,732.208191 367.036346,732.143738 
	C360.232666,731.408264 357.833618,727.706238 359.786652,721.152771 
	C360.426086,719.006958 361.994781,718.884338 363.673706,718.878723 
	C372.837463,718.848083 382.001617,718.901184 391.165131,718.844055 
	C395.008423,718.820129 395.558929,721.253967 395.216125,724.177124 
	C394.873016,727.102173 396.975891,731.870850 391.489868,731.653198 
	C386.870361,731.469971 385.595367,733.864685 384.237152,737.408081 
	C375.001221,761.502686 365.545135,785.513000 356.359070,809.626404 
	C354.999420,813.195435 353.081543,814.383911 349.369598,814.370911 
	C336.930969,814.327332 336.873566,814.473328 332.379211,803.076599 
	C323.768066,781.240479 315.176727,759.396179 306.713379,737.502625 
	C305.393890,734.089233 303.918152,731.923096 299.746552,731.781860 
	C293.670074,731.576233 296.292999,726.531738 295.828186,723.361145 
	C295.305450,719.795837 297.376282,718.778320 300.635925,718.816528 
	C309.298859,718.918152 317.964325,718.901978 326.627655,718.816772 
	C330.093658,718.782715 333.196198,718.966064 332.865051,723.641357 
	C332.602020,727.355286 334.180389,732.295776 327.527069,731.972168 
	C326.538574,731.924072 325.538452,732.167725 324.286530,733.741089 
	C330.563660,751.248108 336.999023,769.196533 343.575256,787.507446 
z"/>
<path fill="#000000" opacity="1.000000" stroke="none" 
	d="
M778.630859,722.840332 
	C778.736633,728.731750 778.751282,734.227478 778.958496,739.715881 
	C779.105896,743.618225 777.790039,745.816406 773.510315,745.299500 
	C772.689026,745.200317 771.845581,745.285217 771.012390,745.283752 
	C764.084412,745.271179 763.970581,745.164001 763.739136,738.437622 
	C763.517090,731.982117 763.516968,731.942932 756.813293,731.973511 
	C740.956055,732.045715 744.450195,730.066528 743.640198,745.041992 
	C742.705627,762.319763 743.437195,779.683655 743.228699,797.007568 
	C743.181519,800.921997 744.792480,802.183716 748.283508,801.595032 
	C753.754272,800.672668 754.139404,803.834839 754.155579,808.069702 
	C754.171509,812.259155 753.417419,814.589172 748.403748,814.384949 
	C739.586365,814.025696 730.741577,814.155701 721.913269,814.331055 
	C718.011658,814.408630 716.734802,812.464111 717.202637,809.123962 
	C717.624817,806.110596 715.711304,801.289917 721.676331,801.710693 
	C725.771545,801.999634 726.746948,800.155640 726.745056,796.401855 
	C726.735168,777.075623 726.955078,757.749329 727.042664,738.422791 
	C727.070496,732.273926 726.727356,732.003967 720.514587,731.924927 
	C719.514893,731.912170 718.514893,731.922180 717.515076,731.920105 
	C708.156982,731.900146 708.080505,731.889832 706.880859,740.952454 
	C706.486206,743.933960 705.327393,745.239502 702.135376,745.348328 
	C691.666748,745.705444 691.659668,745.819824 691.693542,735.408936 
	C691.706604,731.410156 691.857239,727.410645 691.805664,723.413269 
	C691.765503,720.310730 693.018127,718.848877 696.245117,718.853027 
	C722.240723,718.886841 748.236328,718.856628 774.231995,718.832703 
	C776.722412,718.830383 778.473328,719.638611 778.630859,722.840332 
z"/>
<path fill="#000000" opacity="1.000000" stroke="none" 
	d="
M797.002808,718.842163 
	C802.329651,718.838867 807.158936,718.903259 811.985168,718.811523 
	C815.176575,718.750916 816.301575,720.148865 816.383911,723.327271 
	C816.595215,731.480530 816.624512,731.619324 809.243713,732.289612 
	C816.476318,742.205750 823.417175,751.721863 830.856750,761.921753 
	C838.084534,751.869141 844.839111,742.640137 851.386353,733.266235 
	C853.317444,730.501587 850.438782,727.647888 851.235413,724.671143 
	C848.802612,724.595947 849.451355,727.376343 847.048340,727.454651 
	C845.244324,727.076294 844.946533,724.882996 844.410278,723.092896 
	C843.761292,720.926331 844.885193,719.387146 847.089783,719.236633 
	C851.235901,718.953369 855.400574,718.903015 859.558777,718.845764 
	C863.719971,718.788391 867.894592,719.038452 872.041504,718.790039 
	C876.242126,718.538269 877.789062,720.282349 877.387390,724.344055 
	C877.178467,726.456848 877.350586,728.607300 877.350586,731.655518 
	C868.749390,729.364319 866.064514,735.819763 862.448608,740.835266 
	C855.149292,750.959839 847.974243,761.174133 840.652039,771.281982 
	C838.814209,773.819031 837.919128,776.432434 837.915710,779.595886 
	C837.909424,785.415955 837.633118,791.239868 837.316589,797.053894 
	C837.129883,800.484009 838.425598,802.182251 841.946411,801.588013 
	C846.303284,800.852722 847.600342,802.890564 847.249573,806.905334 
	C846.945251,810.388916 848.304932,814.540894 842.197632,814.347412 
	C833.549133,814.073486 824.881836,814.123413 816.229980,814.335327 
	C811.785156,814.444153 811.331421,811.929443 811.600891,808.592651 
	C811.846069,805.557617 810.282471,801.242249 815.927795,801.701843 
	C820.107849,802.042114 821.200256,799.863525 820.901062,796.259460 
	C820.873657,795.928894 820.858582,795.587708 820.906921,795.261719 
	C823.009155,781.075439 819.135132,769.041260 809.258362,758.381653 
	C803.075134,751.708191 798.184753,743.821472 792.864319,736.372009 
	C790.908264,733.633240 788.856750,731.738586 785.177673,731.846802 
	C778.985107,732.029053 781.102234,727.196106 780.732727,723.936584 
	C780.331970,720.401550 781.758545,718.638123 785.517639,718.806274 
	C789.172974,718.969727 792.841309,718.842834 797.002808,718.842163 
z"/>
<path fill="#000000" opacity="1.000000" stroke="none" 
	d="
M609.743530,619.000000 
	C609.746887,611.340576 609.582764,604.175659 609.818359,597.023926 
	C609.954529,592.889282 608.316711,590.809814 604.312256,591.579895 
	C599.105591,592.580994 598.238953,589.972412 598.660828,585.779053 
	C598.743774,584.955017 598.767395,584.102173 598.655212,583.285034 
	C598.058228,578.935242 599.807373,577.461731 604.249084,577.590332 
	C614.396729,577.884094 624.563171,577.840210 634.713318,577.588257 
	C638.872681,577.485046 640.620728,578.885681 640.165710,583.020569 
	C640.038879,584.173279 640.185730,585.354065 640.098755,586.513794 
	C639.978943,588.110840 640.654602,590.090088 638.913330,591.081848 
	C636.886108,592.236450 635.592285,590.741089 634.272339,589.350952 
	C632.684570,587.678833 631.320984,588.455688 630.201172,590.070251 
	C628.991211,591.814819 628.943787,593.809692 628.927307,595.821655 
	C628.731873,619.624512 628.511475,643.427307 628.342102,667.230347 
	C628.296265,673.671875 628.387329,673.915955 634.690979,673.494019 
	C638.933044,673.210022 640.564392,674.752808 640.197693,678.856018 
	C640.064819,680.343323 640.099182,681.854065 640.168640,683.348999 
	C640.298523,686.146362 639.411804,687.487305 636.223816,687.639221 
	C624.739014,688.186340 613.267273,687.753784 601.790100,687.645142 
	C599.708679,687.625427 598.919495,686.655090 598.723511,684.613342 
	C598.158875,678.730530 600.259216,675.208740 605.915527,673.867554 
	C608.316467,673.298218 609.234680,672.410706 609.248535,669.916748 
	C609.342651,653.110779 609.563721,636.305481 609.743530,619.000000 
z"/>
<path fill="#000000" opacity="1.000000" stroke="none" 
	d="
M668.995117,814.286743 
	C663.168640,814.284180 657.834290,814.111816 652.516113,814.330322 
	C648.169189,814.508972 647.513672,812.057312 647.765503,808.637390 
	C647.993835,805.535767 646.629517,801.256287 652.153320,801.705139 
	C656.657593,802.071167 657.782104,800.151672 657.747070,795.896423 
	C657.587830,776.586365 657.601685,757.272278 657.848511,737.963440 
	C657.905212,733.530334 656.570557,731.467957 652.071167,731.467346 
	C645.728333,731.466431 648.273254,726.542542 647.854370,723.400208 
	C647.380920,719.849976 649.448669,718.815369 652.695496,718.846802 
	C661.518005,718.932312 670.344482,718.975159 679.164490,718.795532 
	C683.190002,718.713623 684.685974,720.535522 684.187683,724.237305 
	C683.785828,727.223145 686.095581,731.932739 679.824158,731.505432 
	C675.986511,731.243958 674.373413,733.453491 674.363770,737.012451 
	C674.308533,757.322632 674.315308,777.633179 674.230652,797.943237 
	C674.217590,801.076965 675.695618,802.139160 678.572021,801.760254 
	C684.743042,800.947449 683.987610,805.241455 684.247437,809.119446 
	C684.545349,813.566528 682.300659,814.553162 678.482056,814.315857 
	C675.497009,814.130310 672.491028,814.283264 668.995117,814.286743 
z"/>
<path fill="#000000" opacity="1.000000" stroke="none" 
	d="
M290.225647,725.326538 
	C289.970947,728.693665 290.751770,732.326965 285.377350,729.883118 
	C282.257294,728.464478 281.435608,731.465393 281.299286,733.844666 
	C281.080414,737.664062 281.195343,741.502869 281.178589,745.333496 
	C281.106445,761.822449 281.130341,778.312683 280.907440,794.799561 
	C280.846100,799.336609 281.601990,802.265015 287.118866,801.710388 
	C291.155121,801.304565 291.116547,804.464966 290.878021,807.177368 
	C290.628418,810.015442 292.199432,814.173157 287.034637,814.235413 
	C277.541931,814.349854 268.046753,814.240845 258.553070,814.300537 
	C255.858200,814.317505 254.507599,813.268250 254.648331,810.470642 
	C254.731903,808.809326 254.761902,807.132874 254.639648,805.476257 
	C254.411972,802.391357 255.823364,801.140137 258.792419,801.574280 
	C263.124573,802.207764 264.697998,800.457153 264.663544,796.037048 
	C264.511810,776.550354 264.544312,757.061035 264.697052,737.574158 
	C264.727936,733.636902 263.686707,731.640869 259.398560,731.932617 
	C252.703888,732.388123 255.117584,727.239136 254.671143,723.892029 
	C254.127991,719.819885 256.223236,718.718872 259.949310,718.789124 
	C268.274475,718.946045 276.609406,719.001892 284.931030,718.767822 
	C289.596283,718.636597 291.555267,720.199280 290.225647,725.326538 
z"/>
<path fill="#000000" opacity="1.000000" stroke="none" 
	d="
M801.675720,852.242737 
	C801.611877,849.649536 802.399719,848.094421 804.714233,848.066711 
	C808.265076,848.024353 812.023560,846.991272 814.656616,850.849609 
	C819.626343,858.132141 824.808838,865.269592 829.910400,872.461975 
	C830.576538,873.401062 831.287109,874.308594 833.076843,875.154175 
	C833.076843,868.173889 833.299194,861.184143 833.000122,854.216675 
	C832.794495,849.425476 834.542053,847.781433 839.330627,847.835938 
	C843.833862,847.887268 845.472229,849.282532 845.365601,853.922607 
	C845.093933,865.732056 845.346741,877.552734 845.227173,889.367310 
	C845.204102,891.649597 846.542847,895.175476 843.285767,895.818115 
	C839.611633,896.543091 835.337830,897.715088 832.369812,893.494324 
	C827.201965,886.145203 821.903748,878.887512 816.634644,871.610046 
	C815.976379,870.700684 815.163452,869.903381 813.333496,867.806885 
	C813.333496,876.115234 813.349060,883.004883 813.328735,889.894348 
	C813.311707,895.669617 808.805054,898.369751 803.461487,895.903320 
	C801.214722,894.866333 801.710815,892.889099 801.704224,891.156433 
	C801.655273,878.342346 801.672913,865.527954 801.675720,852.242737 
z"/>
<path fill="#000000" opacity="1.000000" stroke="none" 
	d="
M250.837891,850.617676 
	C260.336243,845.778198 269.695007,845.378479 279.016113,849.736084 
	C288.529175,854.183533 292.769318,864.134033 291.205566,877.419067 
	C290.077942,886.998840 283.104156,894.462097 273.346405,896.531677 
	C256.247253,900.158325 243.118851,892.877319 240.479248,877.629456 
	C238.643005,867.022156 240.776123,857.352173 250.837891,850.617676 
M266.375580,887.553223 
	C271.972565,886.955688 276.151428,884.516052 277.725708,878.747864 
	C279.510071,872.209839 279.500671,865.837952 274.814209,860.440308 
	C270.754944,855.765137 260.726074,855.617554 256.738251,860.209717 
	C251.868881,865.817200 252.518875,872.554993 254.074402,879.111938 
	C255.462006,884.961060 259.967499,887.171204 266.375580,887.553223 
z"/>
<path fill="#000000" opacity="1.000000" stroke="none" 
	d="
M774.362793,855.765015 
	C782.002319,867.802917 780.725952,882.962646 771.606689,891.346069 
	C762.470337,899.745422 743.558167,899.398438 734.794434,890.670654 
	C725.796021,881.709290 725.341248,864.084595 733.861084,854.502441 
	C743.346008,843.835083 763.746460,844.321960 774.362793,855.765015 
M763.791077,861.814148 
	C759.888306,857.326904 754.146423,855.607788 748.555420,857.646057 
	C743.390381,859.529114 741.357971,863.752869 741.171570,868.983398 
	C741.083008,871.467896 741.030151,873.977539 741.272217,876.445312 
	C741.896118,882.807678 745.918457,886.839172 752.087524,887.532471 
	C758.358643,888.237305 763.677002,884.835938 765.567444,878.858276 
	C767.353027,873.212097 767.047424,867.724365 763.791077,861.814148 
z"/>
<path fill="#000000" opacity="1.000000" stroke="none" 
	d="
M436.814819,864.264893 
	C440.902496,852.623291 448.857635,846.989197 461.059357,846.738586 
	C472.808868,846.497253 481.781982,851.895325 485.402283,861.382751 
	C489.601715,872.387756 487.083435,884.775330 479.241852,891.685974 
	C471.618256,898.404602 456.105957,899.360291 446.786560,893.685486 
	C438.276001,888.503357 434.007202,877.342896 436.431641,866.641418 
	C436.578033,865.995300 436.639130,865.329956 436.814819,864.264893 
M470.596863,884.107239 
	C474.806488,879.054321 475.120087,873.275879 473.890137,867.138977 
	C472.463135,860.018677 468.367371,856.798340 460.801056,857.046631 
	C453.917328,857.272522 449.829681,861.120117 449.113770,868.159180 
	C448.929047,869.975586 448.972565,871.817444 448.953400,873.648010 
	C448.897461,878.989136 450.386536,883.700500 455.485809,886.182312 
	C460.521515,888.633240 465.512634,888.071838 470.596863,884.107239 
z"/>
<path fill="#000000" opacity="1.000000" stroke="none" 
	d="
M339.238708,848.304321 
	C351.931000,851.326111 356.873383,858.585144 353.433105,868.540344 
	C352.817932,870.320496 352.097076,872.158325 350.595184,873.138184 
	C346.749451,875.647278 347.696136,878.181885 349.661621,881.423828 
	C352.290649,885.760254 354.400604,890.411316 356.763641,894.985840 
	C347.993469,898.143616 344.240417,896.758545 340.593414,889.518616 
	C339.395752,887.140930 337.991272,884.854309 336.962585,882.407776 
	C335.343140,878.556274 332.160370,878.704468 328.984039,879.163025 
	C325.220245,879.706482 326.553833,882.882019 326.281036,885.151733 
	C326.142944,886.300903 326.251373,887.479614 326.247681,888.644958 
	C326.224213,896.027771 323.719574,897.884888 316.424133,896.149780 
	C314.359985,895.658875 313.751343,894.428833 313.749939,892.579468 
	C313.739594,878.928528 313.751312,865.277588 313.709930,851.626770 
	C313.701141,848.727356 315.346039,847.902466 317.860138,847.935303 
	C324.846375,848.026550 331.832733,848.110291 339.238708,848.304321 
M340.694305,866.259094 
	C342.527313,863.062073 341.780151,860.312744 338.614075,858.785767 
	C334.979034,857.032654 330.766144,856.142212 327.324738,858.706909 
	C325.100830,860.364258 326.414154,863.661316 326.381226,866.236816 
	C326.361450,867.782532 327.341797,868.748535 328.861237,868.758606 
	C332.749023,868.784302 336.819855,869.755493 340.694305,866.259094 
z"/>
<path fill="#000000" opacity="1.000000" stroke="none" 
	d="
M548.679749,896.223755 
	C541.814880,897.404907 537.848633,894.847351 535.880859,888.587463 
	C535.096252,886.091431 533.447571,883.865784 532.182800,881.522217 
	C530.459351,878.328735 527.481140,878.757690 524.697021,879.150146 
	C521.586792,879.588684 522.271057,882.237732 522.165588,884.298279 
	C522.072083,886.126221 522.141602,887.962097 522.118835,889.794250 
	C522.043640,895.841125 521.578186,896.092834 515.513184,896.304443 
	C511.331482,896.450439 509.518555,895.240601 509.609619,890.690186 
	C509.859558,878.202087 509.801788,865.704224 509.629272,853.213501 
	C509.576172,849.370544 510.812836,847.705811 514.772339,847.918396 
	C521.743896,848.292725 528.772583,847.267883 535.706360,848.554565 
	C541.627502,849.653320 547.131531,851.631409 549.224243,858.083557 
	C551.313293,864.524231 550.150330,870.287964 544.733276,874.737183 
	C542.721313,876.389709 543.635620,877.939636 544.503845,879.577332 
	C546.765625,883.843445 549.054443,888.095215 551.330322,892.353882 
	C552.642456,894.809082 551.990479,896.144165 548.679749,896.223755 
M536.628662,866.271545 
	C538.065674,863.995056 537.797180,861.846191 536.048523,859.886292 
	C534.071777,857.670471 526.244019,856.248230 523.806458,857.820312 
	C520.981018,859.642517 522.398926,862.630615 522.218079,865.135254 
	C522.092346,866.877136 522.532288,868.661621 524.723572,868.732422 
	C528.636475,868.859009 532.722656,869.754883 536.628662,866.271545 
z"/>
<path fill="#000000" opacity="1.000000" stroke="none" 
	d="
M207.242279,863.068970 
	C204.977753,857.671570 200.912399,856.652222 196.011612,857.146729 
	C191.268631,857.625427 188.623947,860.441833 187.060364,864.689697 
	C185.007629,870.266418 185.163681,875.752563 187.749588,881.074341 
	C189.737030,885.164490 193.253754,887.378479 197.717377,887.493958 
	C202.004303,887.604919 205.533539,886.005188 206.999054,881.460693 
	C207.555939,879.733704 208.641281,878.663208 210.650040,878.708557 
	C213.765091,878.778992 216.882919,878.727173 220.109146,878.727173 
	C220.922714,883.641296 219.126266,887.130371 216.514420,890.192139 
	C205.665939,902.909729 180.559479,898.539307 174.716553,882.972778 
	C169.378922,868.752258 174.816284,853.715149 187.288925,848.823608 
	C195.047409,845.780884 202.870407,846.024536 210.524033,849.502136 
	C213.686920,850.939331 216.102280,853.220825 217.507690,856.340759 
	C218.592560,858.749084 221.316788,862.212402 218.344360,863.786865 
	C215.322021,865.387634 210.906372,867.358215 207.242279,863.068970 
z"/>
<path fill="#000000" opacity="1.000000" stroke="none" 
	d="
M574.205200,883.262817 
	C578.619385,872.780396 582.947571,862.676697 587.082825,852.494629 
	C588.465088,849.091248 590.529236,847.663696 594.288208,847.809509 
	C598.028625,847.954651 600.869690,848.331543 602.542114,852.497314 
	C607.752136,865.474670 613.366455,878.289551 618.789673,891.181824 
	C619.290955,892.373474 619.548340,893.667664 619.906372,894.871826 
	C612.285706,898.276062 607.650024,896.760864 604.980042,889.690796 
	C603.700439,886.302307 601.803528,884.888428 598.281189,885.304138 
	C596.802429,885.478699 595.258667,885.508850 593.790222,885.293274 
	C588.218018,884.474976 584.672974,886.189941 583.219543,892.131104 
	C582.307373,895.860229 574.396545,897.933228 570.994873,895.845581 
	C569.458496,894.902832 569.825806,893.615417 570.342590,892.353882 
	C571.542236,889.425598 572.806091,886.523560 574.205200,883.262817 
M593.634155,865.121216 
	C592.291260,868.401550 590.566040,871.563965 590.197144,875.652954 
	C592.451111,875.652954 594.393616,875.680786 596.334839,875.643311 
	C597.639221,875.618103 598.929016,874.939392 598.526489,873.628784 
	C597.541504,870.421143 597.666443,866.556946 593.634155,865.121216 
z"/>
<path fill="#000000" opacity="1.000000" stroke="none" 
	d="
M376.689819,863.005371 
	C376.686981,859.511169 376.862579,856.502563 376.639252,853.523865 
	C376.340454,849.537842 377.702179,847.658936 381.962219,847.895874 
	C389.254883,848.301575 396.620239,847.198608 403.859070,848.750305 
	C413.083252,850.727539 417.527222,855.911377 417.199432,864.081848 
	C416.867188,872.362305 411.614563,877.825806 402.658447,879.108826 
	C401.018433,879.343689 399.339996,879.353638 397.677795,879.383728 
	C389.215912,879.536926 389.215759,879.527283 389.187927,888.249939 
	C389.162720,896.146179 389.039032,896.011414 382.763214,896.336975 
	C377.834076,896.592712 376.450073,894.633789 376.605286,889.959961 
	C376.897827,881.150208 376.690277,872.323792 376.689819,863.005371 
M401.924988,868.672546 
	C404.902100,866.678528 405.440552,863.921631 403.974426,860.879761 
	C402.583893,857.994690 395.976837,856.313110 391.707916,857.529358 
	C387.902649,858.613464 389.550781,861.805420 389.202240,864.188110 
	C388.564392,868.548828 390.526123,870.309204 394.859222,869.751587 
	C396.971191,869.479736 399.176208,870.022644 401.924988,868.672546 
z"/>
<path fill="#000000" opacity="1.000000" stroke="none" 
	d="
M657.278809,864.218506 
	C657.275879,873.517456 657.049988,882.353943 657.354492,891.172180 
	C657.531006,896.284729 654.586792,896.245117 650.977783,896.290527 
	C647.217468,896.337708 644.524963,895.968506 644.661499,891.036072 
	C644.919495,881.714966 644.578674,872.378235 644.769348,863.053833 
	C644.846191,859.299988 643.448486,857.869934 639.813965,858.197998 
	C638.162109,858.347107 636.477783,858.113159 634.820312,858.228149 
	C631.023315,858.491577 628.903320,857.349426 628.885620,852.991516 
	C628.867126,848.446045 631.342896,847.876404 634.965820,847.908997 
	C645.959290,848.008057 656.954834,848.030762 667.947998,847.921997 
	C671.671814,847.885193 673.347473,849.085815 673.346008,853.108765 
	C673.344543,857.149231 671.652466,858.500061 667.924622,858.232117 
	C666.267212,858.112976 664.573303,858.379211 662.932678,858.175049 
	C658.602661,857.636414 656.600159,859.289307 657.278809,864.218506 
z"/>
<path fill="#000000" opacity="1.000000" stroke="none" 
	d="
M705.341370,856.080688 
	C705.339050,867.694580 705.155151,878.825562 705.421082,889.945740 
	C705.530823,894.535400 704.379761,896.486084 699.377441,896.381653 
	C694.744263,896.285095 692.820007,894.991760 692.915894,890.113098 
	C693.153931,877.994934 693.159607,865.864746 692.889282,853.747681 
	C692.781860,848.931519 694.852600,847.822937 699.150696,847.858093 
	C703.289795,847.892029 706.099121,848.611267 705.353210,853.602600 
	C705.256104,854.252319 705.340637,854.929138 705.341370,856.080688 
z"/>
</svg>